# xmcd CD database file
#
# Track frame offsets:
#	150
#	24989
#	47828
#	78475
#	112386
#	136383
#	159439
#	195232
#
# Disc length: 2982 seconds
#
# Revision: 0
# Processed by: cddbd v1.5PL3 Copyright (c) Steve Scherf et al.
# Submitted via: CDex 1.50Beta6
#
DISCID=630ba408
DTITLE=Various Artist - sortie
DYEAR=1900
DGENRE=Techno
TTITLE0=Hidden Place
TTITLE1=Nano Calender
TTITLE2=Stepwise
TTITLE3=Inter-session
TTITLE4=For Percussion Ensemble ?
TTITLE5=Clockwork AMEN (Magnet Coating Mix)
TTITLE6=Grand Prix
TTITLE7=CUTIE Bam-boo DANCE
EXTD=
EXTT0=
EXTT1=
EXTT2=
EXTT3=
EXTT4=
EXTT5=
EXTT6=
EXTT7=
PLAYORDER=
